<svg xmlns="http://www.w3.org/2000/svg" width="92.458" height="46.229" viewBox="0 0 92.458 46.229">
  <path id="community" d="M69.332,52.229H65.487c0-5.979.231-6.838-3.39-7.678-5.54-1.279-10.775-2.485-12.686-6.661-.693-1.526-1.16-4.037.6-7.347,3.933-7.431,4.92-13.8,2.7-17.482-2.589-4.3-10.428-4.315-13.04.065-2.219,3.729-1.217,10.066,2.747,17.382,1.791,3.3,1.341,5.817.647,7.35-1.888,4.2-7.073,5.393-12.567,6.657-3.783.874-3.544,1.676-3.544,7.713H23.122l-.008-2.4c0-4.85.385-7.647,6.118-8.972,6.48-1.5,12.882-2.835,9.8-8.51C29.922,15.531,36.432,6,46.221,6c9.6,0,16.284,9.18,7.192,26.347-2.986,5.64,3.174,6.981,9.8,8.51,5.74,1.325,6.121,4.13,6.121,8.988ZM87.862,43.7c-4.966-1.148-9.589-2.153-7.35-6.383,6.819-12.875,1.811-19.759-5.393-19.759-4.873,0-8.66,3.147-8.66,8.957,0,4.889,2.211,8.379,3.483,11.268h4.037c-.655-2.889-5.648-9.87-2.951-14.393,1.587-2.666,6.565-2.67,8.144-.046,1.464,2.431.7,6.981-2.057,12.177a6.927,6.927,0,0,0-.466,6.349c1.175,2.566,3.764,3.8,6.692,4.654,5.806,1.7,5.27.162,5.27,5.7H92.45l.008-1.784c0-3.641-.285-5.748-4.6-6.742ZM.008,52.229H3.849c0-5.54-.535-4,5.27-5.7,2.932-.851,5.521-2.088,6.692-4.654a6.928,6.928,0,0,0-.466-6.349c-2.754-5.2-3.521-9.747-2.057-12.177,1.579-2.627,6.557-2.623,8.144.046,2.7,4.527-2.3,11.5-2.951,14.393h4.037C23.789,34.9,26,31.407,26,26.518c0-5.813-3.783-8.961-8.656-8.961-7.2,0-12.212,6.884-5.393,19.759C14.188,41.55,9.566,42.552,4.6,43.7.285,44.694,0,46.8,0,50.445l.008,1.784Z" transform="translate(0 -6)" fill="#fff"/>
</svg>
