<svg xmlns="http://www.w3.org/2000/svg" width="66.56" height="58.229" viewBox="0 0 66.56 58.229">
  <path id="logout" d="M44.373,33.359H35.8a3.141,3.141,0,0,1-2.926-1.494l-3.45-4.874-5.627,6.4,2.8,4.548a6.881,6.881,0,0,1,1.034,4.134v12.33H22.187V42.816c-.044-3.2-4.7-6.239-6.415-3.648L12.51,44a3.625,3.625,0,0,1-3.159,1.45H0V39.9l7.022,0A2.521,2.521,0,0,0,9.6,38.189l3.123-8.007a11.541,11.541,0,0,1,2.169-3.208l7.28-7.57-2.055-1.884a2.628,2.628,0,0,0-2.252-.661l-6.049,1.109-.948-4.655,8.3-1.662A4.359,4.359,0,0,1,23.213,13l7.993,7.744c1.265,1.205,2.563,3.307,4.587,6.449a2.407,2.407,0,0,0,2.124,1.389h6.456v4.781ZM36.1,18.68a5.469,5.469,0,0,0,4.141-6.408,5.288,5.288,0,0,0-5.117-4.449A5.409,5.409,0,0,0,30,14.327,5.24,5.24,0,0,0,36.1,18.68ZM49.92,2V45.672L66.56,60.229V2Z" transform="translate(0 -2)" fill="#faf8f8"/>
</svg>
