<svg xmlns="http://www.w3.org/2000/svg" width="36.697" height="41.439" viewBox="0 0 36.697 41.439">
  <path id="search" d="M35.612,34.632l-7.669-8.593a18.378,18.378,0,0,0,2.347-9.066C30.289,7.614,23.5,0,15.144,0S0,7.614,0,16.972,6.792,33.945,15.145,33.945a13.847,13.847,0,0,0,7.738-2.388l7.737,8.669C33.924,43.923,38.917,38.334,35.612,34.632ZM4.7,16.972c0-6.456,4.689-11.71,10.45-11.71S25.6,10.515,25.6,16.972s-4.689,11.71-10.45,11.71S4.7,23.428,4.7,16.972Zm3.1-3.046c3.057-7.941,13.35-7.02,15.289,1.293A10.01,10.01,0,0,0,7.792,13.927Z" fill="#fff"/>
</svg>
