<svg xmlns="http://www.w3.org/2000/svg" width="52.712" height="52.712" viewBox="0 0 52.712 52.712">
  <path id="myPage" d="M45.732,39.745c-7.553-1.744-14.586-3.273-11.179-9.7C44.917,10.468,37.3,0,26.356,0c-11.162,0-18.592,10.87-8.2,30.041,3.51,6.468-3.789,8-11.179,9.7C.437,41.256,0,44.452,0,49.986l.011,2.726H4.393c0-6.883-.275-7.8,4.037-8.792,6.262-1.443,12.174-2.807,14.331-7.591.788-1.746,1.3-4.619-.742-8.379-4.52-8.344-5.662-15.57-3.125-19.824,2.974-5,11.917-4.972,14.863-.075,2.526,4.2,1.4,11.463-3.081,19.934-2,3.775-1.474,6.64-.681,8.377,2.174,4.759,8.142,6.137,14.461,7.595,4.127.958,3.866,1.937,3.866,8.755H52.7l.011-2.726C52.712,44.452,52.275,41.256,45.732,39.745Z" fill="#fff"/>
</svg>
